<?xml version="1.0" encoding="utf-8"?>
<!-- Generator: Adobe Illustrator 16.0.0, SVG Export Plug-In . SVG Version: 6.00 Build 0)  -->
<!DOCTYPE svg PUBLIC "-//W3C//DTD SVG 1.1//EN" "http://www.w3.org/Graphics/SVG/1.1/DTD/svg11.dtd">
<svg version="1.1" id="Calque_1" xmlns="http://www.w3.org/2000/svg" xmlns:xlink="http://www.w3.org/1999/xlink" x="0px" y="0px"
	 width="274px" height="161px" viewBox="0 0 274 161" enable-background="new 0 0 274 161" xml:space="preserve">
<g>
	<path fill="#003038" d="M18.727,146.64h-3.633v-14.312H9.839v-3.075h14.143v3.075h-5.255V146.64z"/>
	<path fill="#003038" d="M33.181,128.793c2.301,0,8.354,0.993,8.354,9.154s-6.054,9.153-8.354,9.153s-8.354-0.993-8.354-9.153
		S30.88,128.793,33.181,128.793z M33.181,144.025c1.962,0,4.722-1.211,4.722-6.078c0-4.868-2.76-6.078-4.722-6.078
		s-4.722,1.21-4.722,6.078C28.459,142.814,31.219,144.025,33.181,144.025z"/>
	<path fill="#003038" d="M57.659,132.329h-9.226v3.657h8.476v3.075h-8.476v4.504h9.638v3.075H44.874v-17.387h12.785V132.329z"/>
	<path fill="#003038" d="M64.97,138.843v7.797h-3.632v-17.387h3.632v6.586h6.78v-6.586h3.633v17.387H71.75v-7.797H64.97z"/>
	<path fill="#003038" d="M86.954,128.793c2.301,0,8.354,0.993,8.354,9.154s-6.054,9.153-8.354,9.153s-8.354-0.993-8.354-9.153
		S84.653,128.793,86.954,128.793z M86.954,144.025c1.962,0,4.722-1.211,4.722-6.078c0-4.868-2.76-6.078-4.722-6.078
		s-4.722,1.21-4.722,6.078C82.232,142.814,84.992,144.025,86.954,144.025z"/>
	<path fill="#003038" d="M102.279,143.492h8.646v3.148H98.647v-17.387h3.632V143.492z"/>
	<path fill="#003038" d="M113.876,129.253h7.676c5.86,0,7.071,4.988,7.071,8.282c0,3.729-1.478,9.105-7.217,9.105h-7.53V129.253z
		 M117.436,143.637h3.535c2.954,0,3.947-2.979,3.947-5.836c0-5.134-2.446-5.545-3.996-5.545h-3.486V143.637z"/>
	<path fill="#6ACBDB" d="M138.959,129.253h7.676c5.86,0,7.071,4.988,7.071,8.282c0,3.729-1.478,9.105-7.217,9.105h-7.53V129.253z
		 M142.519,143.637h3.535c2.954,0,3.947-2.979,3.947-5.836c0-5.134-2.446-5.545-3.996-5.545h-3.486V143.637z"/>
	<path fill="#6ACBDB" d="M169.661,132.329h-9.226v3.657h8.476v3.075h-8.476v4.504h9.638v3.075h-13.197v-17.387h12.785V132.329z"/>
	<path fill="#6ACBDB" d="M176.051,141.289c0.024,0.969,0.509,2.809,3.681,2.809c1.72,0,3.632-0.412,3.632-2.252
		c0-1.356-1.308-1.719-3.147-2.155l-1.864-0.436c-2.81-0.654-5.521-1.284-5.521-5.109c0-1.938,1.041-5.352,6.684-5.352
		c5.327,0,6.756,3.487,6.78,5.618h-3.487c-0.097-0.775-0.388-2.615-3.56-2.615c-1.38,0-3.027,0.509-3.027,2.083
		c0,1.356,1.114,1.646,1.841,1.816l4.237,1.041c2.374,0.581,4.553,1.55,4.553,4.674c0,5.23-5.327,5.69-6.853,5.69
		c-6.345,0-7.435-3.656-7.435-5.812H176.051z"/>
	<path fill="#6ACBDB" d="M193.387,146.64h-3.633v-17.387h3.633V146.64z"/>
	<path fill="#6ACBDB" d="M205.372,137.269h7.265v9.372h-2.422l-0.362-2.179c-0.921,1.065-2.253,2.639-5.425,2.639
		c-4.189,0-7.991-3.002-7.991-9.105c0-4.746,2.64-9.226,8.5-9.202c5.327,0,7.434,3.463,7.628,5.86h-3.633
		c0-0.678-1.234-2.857-3.802-2.857c-2.591,0-4.988,1.792-4.988,6.248c0,4.747,2.591,5.981,5.062,5.981
		c0.799,0,3.462-0.315,4.213-3.826h-4.044V137.269z"/>
	<path fill="#6ACBDB" d="M227.091,129.253h3.39v17.387h-3.632l-7.096-12.398h-0.048v12.398h-3.391v-17.387h3.826l6.901,12.108h0.049
		V129.253z"/>
	<path fill="#6ACBDB" d="M247.186,132.329h-9.226v3.657h8.476v3.075h-8.476v4.504h9.638v3.075H234.4v-17.387h12.785V132.329z"/>
	<path fill="#6ACBDB" d="M250.985,129.253h8.79c4.625,0,5.473,3.414,5.473,4.916c0,1.913-0.969,3.56-2.688,4.141
		c1.429,0.629,2.204,1.162,2.204,4.407c0,2.542,0,3.172,0.774,3.463v0.46h-4.02c-0.242-0.823-0.388-1.719-0.388-3.511
		c0-2.373-0.145-3.293-2.833-3.293h-3.753v6.805h-3.56V129.253z M258.807,136.905c1.889,0,2.809-0.654,2.809-2.373
		c0-0.92-0.411-2.276-2.542-2.276h-4.528v4.649H258.807z"/>
</g>
<path fill="none" stroke="#003038" stroke-width="2" stroke-miterlimit="10" d="M88.645,123.129"/>
<path fill="none" stroke="#003038" stroke-width="2" stroke-miterlimit="10" d="M65.264,123.129"/>
<path fill="none" stroke="#003038" stroke-width="2" stroke-miterlimit="10" d="M265.899,123.129h-79.817V97.853l0.339-0.314
	c2.527-2.352,3.976-5.676,3.976-9.122s-1.448-6.771-3.976-9.122l-0.339-0.315V54.533l0.661-0.271
	c9.073-3.695,14.92-12.76,14.548-22.56c-0.458-12.025-10.229-21.879-22.246-22.434c-6.982-0.323-13.57,2.375-18.344,7.56
	c-3.385,3.672-5.508,8.375-6.012,13.345c-1.068,10.518,4.842,20.184,14.438,24.089l0.661,0.271V78.98l-0.337,0.315
	c-2.526,2.352-3.977,5.676-3.977,9.122s1.45,6.77,3.977,9.122l0.337,0.314v7.029l0,0"/>
<line fill="none" stroke="#003038" stroke-width="2" stroke-miterlimit="10" x1="171.768" y1="60.151" x2="183.675" y2="60.151"/>
<line fill="none" stroke="#003038" stroke-width="2" stroke-miterlimit="10" x1="171.768" y1="65.124" x2="183.675" y2="65.124"/>
<line fill="none" stroke="#003038" stroke-width="2" stroke-miterlimit="10" x1="171.768" y1="70.096" x2="183.675" y2="70.096"/>
<line fill="none" stroke="#003038" stroke-width="2" stroke-miterlimit="10" x1="171.768" y1="104.881" x2="183.675" y2="104.881"/>
<line fill="none" stroke="#003038" stroke-width="2" stroke-miterlimit="10" x1="171.768" y1="109.853" x2="183.675" y2="109.853"/>
<line fill="none" stroke="#003038" stroke-width="2" stroke-miterlimit="10" x1="171.768" y1="114.826" x2="183.675" y2="114.826"/>
<line fill="none" stroke="#003038" stroke-width="2" stroke-miterlimit="10" x1="171.768" y1="119.799" x2="183.675" y2="119.799"/>
<path fill="none" stroke="#003038" stroke-width="2" stroke-miterlimit="10" d="M61.145,123.129"/>
<path fill="none" stroke="#003038" stroke-width="2" stroke-miterlimit="10" d="M33.764,123.129"/>
<path fill="none" stroke="#003038" stroke-width="2" stroke-miterlimit="10" d="M30.145,123.129"/>
<path fill="none" stroke="#003038" stroke-width="2" stroke-miterlimit="10" d="M28.764,123.129"/>
<path fill="none" stroke="#003038" stroke-width="2" stroke-miterlimit="10" d="M24.645,123.129"/>
<path fill="none" stroke="#003038" stroke-width="2" stroke-miterlimit="10" d="M25.764,123.129"/>
<path fill="none" stroke="#003038" stroke-width="2" stroke-miterlimit="10" d="M22.145,123.129"/>
<path fill="none" stroke="#003038" stroke-width="2" stroke-miterlimit="10" d="M24.764,123.129"/>
<line fill="none" stroke="#003038" stroke-width="2" stroke-miterlimit="10" x1="9.264" y1="123.129" x2="14" y2="123.129"/>
<line fill="none" stroke="#003038" stroke-width="2" stroke-miterlimit="10" x1="16.264" y1="123.129" x2="21" y2="123.129"/>
<path fill="none" stroke="#003038" stroke-width="2" stroke-miterlimit="10" d="M25.764,123.129"/>
<path fill="none" stroke="#003038" stroke-width="2" stroke-miterlimit="10" d="M45.645,123.129"/>
<path fill="none" stroke="#003038" stroke-width="2" stroke-miterlimit="10" d="M46.764,123.129"/>
<path fill="none" stroke="#003038" stroke-width="2" stroke-miterlimit="10" d="M43.145,123.129"/>
<path fill="none" stroke="#003038" stroke-width="2" stroke-miterlimit="10" d="M45.764,123.129"/>
<line fill="none" stroke="#003038" stroke-width="2" stroke-miterlimit="10" x1="23.264" y1="123.129" x2="28" y2="123.129"/>
<line fill="none" stroke="#003038" stroke-width="2" stroke-miterlimit="10" x1="30.264" y1="123.129" x2="35" y2="123.129"/>
<line fill="none" stroke="#003038" stroke-width="2" stroke-miterlimit="10" x1="37.264" y1="123.129" x2="42" y2="123.129"/>
<path fill="none" stroke="#003038" stroke-width="2" stroke-miterlimit="10" d="M47.764,123.129"/>
<line fill="none" stroke="#003038" stroke-width="2" stroke-miterlimit="10" x1="44.264" y1="123.129" x2="49" y2="123.129"/>
<line fill="none" stroke="#003038" stroke-width="2" stroke-miterlimit="10" x1="51.264" y1="123.129" x2="56" y2="123.129"/>
<path fill="none" stroke="#003038" stroke-width="2" stroke-miterlimit="10" d="M90,123.129"/>
<path fill="none" stroke="#003038" stroke-width="2" stroke-miterlimit="10" d="M85.881,123.129"/>
<path fill="none" stroke="#003038" stroke-width="2" stroke-miterlimit="10" d="M62.5,123.129"/>
<path fill="none" stroke="#003038" stroke-width="2" stroke-miterlimit="10" d="M74.381,123.129"/>
<path fill="none" stroke="#003038" stroke-width="2" stroke-miterlimit="10" d="M75.5,123.129"/>
<path fill="none" stroke="#003038" stroke-width="2" stroke-miterlimit="10" d="M71.881,123.129"/>
<path fill="none" stroke="#003038" stroke-width="2" stroke-miterlimit="10" d="M74.5,123.129"/>
<line fill="none" stroke="#003038" stroke-width="2" stroke-miterlimit="10" x1="59" y1="123.129" x2="63.736" y2="123.129"/>
<line fill="none" stroke="#003038" stroke-width="2" stroke-miterlimit="10" x1="66" y1="123.129" x2="70.736" y2="123.129"/>
<path fill="none" stroke="#003038" stroke-width="2" stroke-miterlimit="10" d="M76.5,123.129"/>
<line fill="none" stroke="#003038" stroke-width="2" stroke-miterlimit="10" x1="73" y1="123.129" x2="77.736" y2="123.129"/>
<line fill="none" stroke="#003038" stroke-width="2" stroke-miterlimit="10" x1="80" y1="123.129" x2="84.736" y2="123.129"/>
<line fill="none" stroke="#003038" stroke-width="2" stroke-miterlimit="10" x1="86.978" y1="123.129" x2="91.714" y2="123.129"/>
<path fill="none" stroke="#003038" stroke-width="2" stroke-miterlimit="10" d="M116.667,123.129"/>
<path fill="none" stroke="#003038" stroke-width="2" stroke-miterlimit="10" d="M93.286,123.129"/>
<path fill="none" stroke="#003038" stroke-width="2" stroke-miterlimit="10" d="M118.022,123.129"/>
<path fill="none" stroke="#003038" stroke-width="2" stroke-miterlimit="10" d="M113.903,123.129"/>
<path fill="none" stroke="#003038" stroke-width="2" stroke-miterlimit="10" d="M102.403,123.129"/>
<path fill="none" stroke="#003038" stroke-width="2" stroke-miterlimit="10" d="M103.522,123.129"/>
<path fill="none" stroke="#003038" stroke-width="2" stroke-miterlimit="10" d="M99.903,123.129"/>
<path fill="none" stroke="#003038" stroke-width="2" stroke-miterlimit="10" d="M102.522,123.129"/>
<line fill="none" stroke="#003038" stroke-width="2" stroke-miterlimit="10" x1="94.022" y1="123.129" x2="98.759" y2="123.129"/>
<path fill="none" stroke="#003038" stroke-width="2" stroke-miterlimit="10" d="M104.522,123.129"/>
<line fill="none" stroke="#003038" stroke-width="2" stroke-miterlimit="10" x1="101.022" y1="123.129" x2="105.759" y2="123.129"/>
<line fill="none" stroke="#003038" stroke-width="2" stroke-miterlimit="10" x1="108.022" y1="123.129" x2="112.759" y2="123.129"/>
<line fill="none" stroke="#003038" stroke-width="2" stroke-miterlimit="10" x1="115" y1="123.129" x2="119.736" y2="123.129"/>
<path fill="none" stroke="#003038" stroke-width="2" stroke-miterlimit="10" d="M144.788,123.129"/>
<path fill="none" stroke="#003038" stroke-width="2" stroke-miterlimit="10" d="M146.144,123.129"/>
<path fill="none" stroke="#003038" stroke-width="2" stroke-miterlimit="10" d="M142.024,123.129"/>
<path fill="none" stroke="#003038" stroke-width="2" stroke-miterlimit="10" d="M130.524,123.129"/>
<path fill="none" stroke="#003038" stroke-width="2" stroke-miterlimit="10" d="M131.644,123.129"/>
<path fill="none" stroke="#003038" stroke-width="2" stroke-miterlimit="10" d="M128.024,123.129"/>
<path fill="none" stroke="#003038" stroke-width="2" stroke-miterlimit="10" d="M130.644,123.129"/>
<line fill="none" stroke="#003038" stroke-width="2" stroke-miterlimit="10" x1="122.144" y1="123.129" x2="126.88" y2="123.129"/>
<path fill="none" stroke="#003038" stroke-width="2" stroke-miterlimit="10" d="M132.644,123.129"/>
<line fill="none" stroke="#003038" stroke-width="2" stroke-miterlimit="10" x1="129.144" y1="123.129" x2="133.88" y2="123.129"/>
<line fill="none" stroke="#003038" stroke-width="2" stroke-miterlimit="10" x1="136.144" y1="123.129" x2="140.88" y2="123.129"/>
<line fill="none" stroke="#003038" stroke-width="2" stroke-miterlimit="10" x1="143.121" y1="123.129" x2="147.857" y2="123.129"/>
<path fill="none" stroke="#003038" stroke-width="2" stroke-miterlimit="10" d="M165.313,123.129"/>
<path fill="none" stroke="#003038" stroke-width="2" stroke-miterlimit="10" d="M166.668,123.129"/>
<path fill="none" stroke="#003038" stroke-width="2" stroke-miterlimit="10" d="M162.549,123.129"/>
<path fill="none" stroke="#003038" stroke-width="2" stroke-miterlimit="10" d="M151.049,123.129"/>
<path fill="none" stroke="#003038" stroke-width="2" stroke-miterlimit="10" d="M152.168,123.129"/>
<path fill="none" stroke="#003038" stroke-width="2" stroke-miterlimit="10" d="M151.168,123.129"/>
<path fill="none" stroke="#003038" stroke-width="2" stroke-miterlimit="10" d="M153.168,123.129"/>
<line fill="none" stroke="#003038" stroke-width="2" stroke-miterlimit="10" x1="149.668" y1="123.129" x2="154.404" y2="123.129"/>
<line fill="none" stroke="#003038" stroke-width="2" stroke-miterlimit="10" x1="156.668" y1="123.129" x2="161.404" y2="123.129"/>
<path fill="none" stroke="#003038" stroke-width="2" stroke-miterlimit="10" d="M163.646,123.129"/>
<line fill="none" stroke="#003038" stroke-width="2" stroke-miterlimit="10" x1="164.48" y1="123.129" x2="169.217" y2="123.129"/>
<line fill="none" stroke="#003038" stroke-width="2" stroke-miterlimit="10" x1="169.75" y1="106.382" x2="169.75" y2="111.118"/>
<line fill="none" stroke="#003038" stroke-width="2" stroke-miterlimit="10" x1="169.75" y1="112.458" x2="169.75" y2="117.194"/>
<line fill="none" stroke="#003038" stroke-width="2" stroke-miterlimit="10" x1="169.75" y1="119.393" x2="169.75" y2="124.129"/>
</svg>
